<svg width="207" height="274" viewBox="0 0 207 274" fill="none" xmlns="http://www.w3.org/2000/svg">
<path d="M82.6231 129.025C83.7094 128.369 84.7771 127.741 85.8806 127.108C102.133 117.916 119.492 110.143 136.337 101.171C148.792 94.5621 160.747 87.0163 171.973 78.3892C180.007 72.3008 187.693 65.8338 195.597 59.4822C196.788 58.539 197.978 57.615 199.236 56.7025C199.858 56.2524 200.503 55.7984 201.201 55.3561C201.556 55.1329 201.915 54.9142 202.362 54.6861C202.588 54.573 202.823 54.4574 203.184 54.3327C203.367 54.2726 203.578 54.2031 203.934 54.1573C204.262 54.1577 204.971 53.9323 206.061 54.7926C206.717 55.3313 206.961 56.3304 206.917 56.7829C206.894 57.2912 206.795 57.5289 206.718 57.7448C206.56 58.1349 206.432 58.3184 206.311 58.5035C206.08 58.8404 205.882 59.0662 205.694 59.277C205.317 59.6933 204.962 60.034 204.607 60.3652C203.899 61.0203 203.2 61.6103 202.489 62.1944C201.084 63.3447 199.665 64.4334 198.234 65.5082C189.973 71.6636 181.542 77.3085 173.026 82.5862C166.767 86.418 167.085 85.9747 165.304 87.0069C165.088 87.1294 164.877 87.2499 164.669 87.3685C160.145 89.9362 157.342 91.6417 153.834 93.4326C145.169 97.7329 136.615 101.788 126.935 103.385C122.944 103.893 117.752 104.196 114.018 100.227C110.588 96.137 111.056 91.247 111.576 87.2127C111.899 85.0806 112.4 82.9834 112.967 80.9501C119.438 61.596 117.029 71.03 119.66 64.5142C125.389 52.1113 120.083 62.4676 122.155 57.5065C124.527 52.3726 127.046 47.2928 129.652 42.2651C134.279 33.353 139.201 24.5538 144.603 16.0798C142.601 19.3594 140.683 22.6737 138.799 26.0559C142.206 20.1302 147.515 11.8983 141.661 21.7406C143.002 19.594 144.284 17.6155 145.724 15.4471C145.812 15.1066 147.261 12.7129 148.928 10.2009C150.828 7.29016 153.137 4.27407 153.5 3.76322C154.048 2.77378 149.843 8.2872 149.916 8.27343C149.944 8.17844 150.595 7.20817 151.71 5.72547C152.268 4.98777 152.945 4.11529 153.762 3.17338C154.176 2.69939 154.613 2.21611 155.147 1.70503C155.416 1.4505 155.7 1.19264 156.074 0.919669C156.27 0.779997 156.468 0.642161 156.798 0.48646C156.966 0.410977 157.168 0.326408 157.473 0.271394C157.786 0.220357 158.305 0.177454 158.898 0.508427C159.359 0.753681 159.701 1.27592 159.798 1.58384C159.922 1.94305 159.925 2.14331 159.934 2.33372C159.94 2.68714 159.895 2.91704 159.861 3.10389C159.781 3.49829 159.685 3.79706 159.587 4.09089C159.39 4.67188 159.176 5.1964 158.95 5.72968C158.51 6.75966 158.03 7.78426 157.553 8.77936C156.597 10.7673 155.616 12.6991 154.738 14.4121C152.969 17.8556 151.587 20.4538 151.294 21.0094C148.814 25.673 150.691 21.4315 148.626 25.4311C148.042 26.5592 147.653 27.3434 147.338 27.9996C145.775 31.2647 147.088 29.4569 142.381 36.9342C140.649 40.751 140.371 40.9906 137.871 45.6535C137.542 46.2679 137.927 45.8602 137.786 46.1331C134.119 53.2547 136.772 47.6837 136.737 47.7179C136.167 48.2481 132.233 55.8655 131.357 57.4521C121.066 76.1167 113.326 90.0799 103.049 109.182C102.372 110.441 101.704 111.688 101.029 112.949C99.2316 115.898 95.1365 125.525 91.9018 129.411L91.8553 129.456C93.6237 127.497 95.2238 125.911 96.2398 124.933C99.8665 121.54 98.0549 123.504 100.051 121.844C101.198 120.764 101.968 119.521 104.148 118.865C104.638 118.846 104.879 119.289 104.599 119.692C102.932 122.21 100.55 125.112 96.7193 129.544C94.7862 132.424 94.8634 131.93 90.6943 137.086C87.2201 141.38 81.3556 149.025 77.2112 153.482C81.6947 148.148 81.1159 148.6 86.0541 142.509C87.7472 140.514 104.96 119.402 103.293 120.663C102.552 121.454 97.0507 128.576 96.7904 128.822C95.3578 130.283 98.388 126.24 101.191 122.787C100.538 123.684 99.7374 124.753 99.019 125.709C104.429 119.177 101.707 121.651 103.875 119.187L104.181 119.747C103.785 119.716 102.952 120.099 101.967 120.685C101.163 121.182 101.386 120.863 100.122 121.791C99.9038 122.028 101.425 120.883 100.187 121.951C98.9203 123.038 96.4959 125.101 96.2803 125.556C95.9164 126.19 100.885 121.393 101.374 121.162C101.377 121.158 101.381 121.153 101.384 121.149C105.056 118.442 97.6159 124.407 97.4205 124.895C95.4085 127.079 96.8982 125.712 93.9052 128.993C93.6015 129.333 93.1996 129.776 92.7622 130.272C92.7502 130.285 92.7124 130.322 92.6988 130.334C92.6523 130.374 92.6132 130.408 92.5487 130.458C92.5179 130.481 92.488 130.503 92.4364 130.535C92.3861 130.564 92.3395 130.6 92.1931 130.646C92.1289 130.66 92.0188 130.701 91.8034 130.656C91.5883 130.614 91.3847 130.429 91.3123 130.275C91.2296 130.105 91.2342 130.035 91.2253 129.976C91.2199 129.915 91.2212 129.865 91.2244 129.82C91.2338 129.697 91.2596 129.601 91.2745 129.543C91.3485 129.278 91.4337 129.076 91.516 128.874C91.6866 128.465 91.8761 128.057 92.0719 127.644C92.4615 126.826 92.8782 125.996 93.289 125.185C94.0984 123.592 94.8787 122.097 95.3162 121.237C96.4023 119.106 94.5792 122.353 95.3031 120.912C96.0216 119.482 97.0249 117.76 97.8757 116.088C98.2453 115.362 98.1148 115.337 98.2883 114.999C100.193 111.298 99.1528 113.825 100.915 110.472C101.149 110.027 101.497 109.346 101.891 108.565C103.309 105.746 105.138 101.97 102.972 105.906C104.239 103.476 105.466 101.139 106.728 98.7354C105.897 100.21 105.043 101.755 104.207 103.225C106.67 98.742 107.562 96.6143 109.058 93.7838C110.554 90.9524 112.14 88.5436 113.686 85.3855C116.998 78.6264 108.318 95.1038 107.196 97.1024C106.754 97.8879 108.204 94.7432 108.449 94.274C109.54 92.1802 110.995 89.7719 111.843 88.1737C114.907 82.399 116.614 78.8023 119.518 73.2953C127.152 58.809 136.262 41.6235 144.222 26.3641C146.557 21.8804 148.781 17.5799 150.809 13.5568C152.241 10.7141 153.429 8.38932 154.398 6.40844C154.881 5.4185 155.306 4.52165 155.648 3.72039C155.815 3.32895 155.968 2.93739 156.064 2.6394C156.112 2.49366 156.144 2.35513 156.147 2.34364C156.152 2.34645 156.136 2.36118 156.162 2.57089C156.175 2.65963 156.209 2.84487 156.326 3.07101C156.45 3.32329 156.719 3.62745 157.021 3.79307C157.425 4.02385 157.818 4.03034 157.995 4.01284C158.201 3.99226 158.283 3.95606 158.333 3.93885C158.431 3.89854 158.404 3.9018 158.37 3.92459C158.293 3.97101 158.143 4.08662 158.007 4.2079C154.678 7.63355 153.555 9.81546 151.888 12.2337C151.151 13.3553 150.312 14.638 149.178 16.396C143.855 24.5695 137.095 36.4872 133.183 44.0799C133.055 44.3256 132.93 44.5676 132.807 44.8053C130.111 50.009 127.996 54.868 127.355 56.2456C122.906 65.9666 117.785 77.0757 115.91 87.8532C115.325 91.6524 115.546 95.64 117.492 97.4723C119.363 99.3792 123.07 99.4667 126.297 98.9842C128.499 98.6615 130.635 98.1147 132.638 97.5099C140.283 95.0738 143.86 93.3861 145.399 92.7316C151.949 89.5919 150.114 90.2679 155.347 87.547C158.16 86.0421 158.758 85.8816 159.135 85.6827C160.741 84.8143 161.69 84.2237 162.534 83.6816C163.431 83.1041 164.206 82.5817 165.507 81.804C175.95 75.5274 185.926 68.9716 195.516 61.8913C196.918 60.8456 198.302 59.7893 199.627 58.7103C200.295 58.1651 200.945 57.6168 201.542 57.067C201.838 56.7934 202.125 56.5142 202.349 56.2674C202.457 56.1489 202.558 56.0236 202.586 55.9817C202.598 55.9676 202.591 55.9558 202.528 56.1092C202.497 56.2001 202.438 56.3153 202.421 56.6613C202.386 56.9621 202.571 57.7443 203.075 58.1557C203.697 58.6723 204.165 58.6232 204.336 58.6319C204.522 58.6246 204.581 58.6024 204.61 58.5963C204.662 58.5807 204.602 58.5975 204.536 58.6284C204.396 58.6903 204.188 58.8021 203.982 58.9237C203.563 59.1703 203.112 59.4686 202.664 59.7785C201.71 60.4471 201.736 60.3171 201.119 60.7777C199.103 62.3227 199.403 62.2321 198.431 63.056C198.137 63.3087 197.707 63.6645 197.059 64.1894C191.354 68.8402 185.474 73.7067 179.252 78.5451C178.637 79.0233 178.284 79.1429 176.87 80.2352C176.114 80.8189 175.476 81.3506 174.701 81.9782C174.025 82.5253 173.245 83.1464 172.191 83.9282C166.286 88.3118 160.2 92.3196 153.552 96.3859C152.453 97.0584 151.161 98.0175 149.492 98.9971C146.349 100.846 142.228 103.1 138.421 105.079C135.896 106.394 133.513 107.6 131.672 108.541C116.48 116.314 102.219 122.97 88.3795 130.775C88.28 130.832 88.1812 130.888 88.0831 130.944C84.9621 132.722 82.2379 134.279 80.6742 135.31C77.0899 137.734 79.8221 135.97 76.3002 138.536C72.1647 141.684 68.1777 145.296 66.3779 149.673C64.1398 154.738 66.3298 160.454 69.2927 165.744C72.9366 172.265 77.3353 178.52 81.892 184.592C84.6511 188.262 87.3362 191.656 90.7014 194.576C95.9999 199.211 101.497 204.45 106.943 207.795C107.23 207.967 107.386 207.902 106.902 207.896C106.665 207.904 106.363 208.048 106.251 208.153C106.129 208.258 106.125 208.292 106.137 208.269C106.227 208.141 106.423 207.489 106.519 206.905C106.735 205.673 106.83 204.305 106.893 202.923C107.009 200.169 106.978 197.307 106.91 194.512C106.887 193.568 106.858 192.66 106.822 191.671C106.282 177.814 104.871 161.552 103.732 148.478C103.219 142.673 103.294 141.601 102.893 137.496C102.158 130.176 101.788 128.868 100.9 121.168C100.271 115.78 99.707 109.685 98.9701 103.989C98.8642 103.17 98.7559 102.366 98.6449 101.581C97.7295 95.2027 97.0738 92.3055 95.8379 85.0272C94.8173 79.0405 93.3592 70.6732 91.8952 64.2391C90.7037 59.0282 89.4285 53.7191 87.7269 48.8463C87.4221 47.9976 87.0489 47.0607 86.7604 46.6048C86.7127 46.5134 86.613 46.452 86.8272 46.6344C86.9393 46.7157 87.1997 46.907 87.6979 46.9466C88.179 46.9882 88.6319 46.7712 88.7767 46.6596C89.1035 46.4036 89.0004 46.4301 88.9678 46.515C88.9193 46.5986 88.8457 46.7489 88.7728 46.9223C88.1867 48.368 87.7051 50.357 87.2558 52.1761C86.3511 55.9317 85.5223 59.7159 84.6492 63.5277C78.1194 92.3037 70.4152 120.761 61.263 148.911C55.6781 166.07 49.6256 183.119 43.3242 200.195C37.5923 215.726 31.2288 232.532 24.8363 248.819C22.8702 253.834 20.9069 258.802 18.948 263.695C18.173 265.629 19.1219 262.583 16.7319 268.854C16.4225 269.688 15.9646 270.836 15.777 271.573C15.741 271.706 15.7381 271.921 15.7454 271.715C15.738 271.648 15.75 271.539 15.6305 271.246C15.5693 271.106 15.4546 270.895 15.2298 270.689C15.0107 270.484 14.6899 270.33 14.4275 270.281C13.901 270.193 13.7183 270.3 13.6039 270.328C13.4937 270.367 13.4662 270.386 13.4512 270.393C13.4179 270.412 13.5795 270.285 13.7089 270.154C13.8484 270.016 14.0045 269.85 14.1658 269.67C15.8727 267.734 17.8348 264.748 20.2643 261.035C23.5524 255.97 26.7398 250.764 29.9442 245.479C45.0972 220.374 60.1019 194.055 73.2469 167.159C79.867 153.558 85.9714 139.782 91.5618 126.026C96.2648 114.435 100.706 102.631 104.719 90.7156C106.358 85.5902 108.646 79.6313 108.612 75.5132C108.598 75.372 108.517 75.3654 108.721 75.6169C108.823 75.7348 109.022 75.8594 109.163 75.9C109.316 75.9471 109.386 75.9385 109.398 75.9401C109.382 75.9244 108.818 76.1282 108.342 76.4249C107.354 77.0151 106.302 77.8487 105.279 78.7156C103.267 80.4327 101.263 82.3806 99.3286 84.3203C75.6517 108.939 53.8197 135.149 32.8226 159.347C21.9988 171.961 11.4973 184.144 1.985 196.257C-0.0186961 198.786 0.575808 197.05 1.59624 195.404C2.75115 194.028 3.84447 192.777 5.07091 191.355C5.95736 189.058 5.79494 189.467 11.2421 182.611C14.6295 178.396 11.7051 181.61 13.4427 179.293C15.6436 176.291 26.5326 162.583 24.7461 165.469C25.3658 164.6 25.9707 163.755 26.5748 162.91C28.0266 161.151 29.4272 159.458 30.8766 157.711C37.4525 149.785 43.9683 141.998 50.5398 134.213C51.928 132.57 51.8748 132.412 53.3095 130.72C57.1515 126.188 60.3214 122.693 64.3518 118.084C66.5427 115.583 66.7255 115.123 69.6185 111.874C72.5247 108.621 72.6133 108.848 76.4064 104.262C73.6079 106.941 85.3156 94.2536 89.5644 89.8018C90.0855 89.2426 94.0934 84.7189 96.927 81.8972C97.268 81.5558 97.584 81.2452 97.8706 80.9695C99.2862 79.6123 101.109 77.9185 103.235 76.174C104.331 75.2877 105.477 74.3781 106.856 73.5861C107.604 73.2052 108.292 72.725 109.614 72.7591C110.313 72.771 111.168 73.3657 111.439 73.9875C111.729 74.5565 111.793 75.0868 111.83 75.5349C111.836 78.8311 111.397 80.4072 110.595 83.4301C109.994 85.5123 109.017 87.9461 108.141 90.5042C108.02 90.8596 107.879 91.2786 107.723 91.7448C106.797 94.5428 105.387 98.8152 105.074 99.6814C103.76 103.344 105.101 99.2808 104.194 101.764C99.783 113.827 94.2032 127.649 89.2867 139.3C88.6827 140.733 89.6636 138.813 89.586 139.005C85.558 148.776 87.6204 143.513 86.3605 146.082C85.2067 148.586 76.7718 166.955 76.8698 167.17C76.6919 167.306 76.3915 167.83 76.0468 168.514C75.326 169.946 74.4044 172.08 74.06 172.791C72.0757 176.879 72.2306 175.96 70.3217 179.927C69.6179 181.382 71.2046 178.659 70.4145 180.205C68.4582 184.026 66.4277 187.324 63.7349 192.358C63.0845 193.571 62.9897 194.034 61.8324 196.191C60.6833 198.361 55.6159 207.309 58.1307 203.279C54.9407 208.644 54.4463 209.797 50.8842 216.126C49.9866 217.714 48.6309 219.686 46.7475 223.108C46.1079 224.268 46.3099 224.328 45.3133 226.061C43.046 230 40.7006 233.608 37.7496 238.573C36.0812 241.378 34.3792 244.243 32.6588 247.119C28.6424 253.798 24.5824 260.634 20.0478 267.146C18.369 269.443 18.5803 269.046 16.2791 271.645C16.0554 271.879 15.8031 272.141 15.4763 272.427C15.3538 272.514 15.2551 272.692 14.6524 272.994C14.5619 273.032 14.4556 273.074 14.283 273.101C14.1239 273.124 13.8281 273.139 13.5155 272.966C13.1986 272.792 13.0331 272.495 12.9706 272.317C12.9038 272.131 12.8898 271.994 12.8806 271.88C12.8606 271.441 12.9265 271.181 12.9867 270.886C13.6215 268.714 14.6943 266 15.4418 264.054C16.1187 262.349 19.6967 253.464 20.4068 251.649C21.2397 249.526 21.4823 248.622 21.8115 247.651C21.9331 247.29 22.0675 246.919 22.2566 246.459C24.1815 241.775 22.996 245.669 24.8083 239.842C25.7386 238.038 26.9797 234.733 27.6498 233.741C28.1014 231.721 29.336 229.29 30.6657 225.497C31.9937 221.709 32.6101 218.422 33.5337 217.732C34.1271 215.946 36.797 208.413 37.2558 207.137C38.6055 203.411 38.036 205.449 39.0488 202.633C39.2267 202.137 38.9272 202.616 40.1051 199.436C40.8936 197.357 46.4259 182.026 46.7495 181.109C50.6246 170.702 44.8459 186.854 44.1342 189.15C43.9591 189.538 43.7868 189.917 43.6011 190.334C41.8796 194.931 43.0795 192.398 43.8949 190.321C44.7075 188.254 45.9986 184.298 46.6997 182.584C47.0486 181.732 47.1615 182.372 46.1866 184.988C47.2823 182.211 46.0099 186.084 46.4936 185.004C47.0386 183.82 51.5162 171.186 51.3609 171.057C50.5347 173.42 49.5111 176.362 48.6615 178.747C47.2684 181.764 49.6546 171.95 53.0143 163.362C55.4372 157.126 52.1725 167.654 56.9378 152.569C56.1637 154.877 55.4867 156.816 54.7693 158.909C54.4771 159.062 55.8575 155.741 56.3683 153.962C56.6144 153.109 54.7353 158.251 56.1818 153.724C56.9964 151.796 57.5698 150.035 58.209 147.92C58.8252 145.881 59.5022 143.518 60.5057 140.328C59.9902 142.159 59.4635 144.004 58.9396 145.823C62.6944 134.866 54.5754 160.517 61.5459 139.097C60.7437 141.693 59.9242 144.261 59.1046 146.852C59.6247 145.631 59.311 147.752 59.7452 146.649C60.8836 143.761 62.1564 139.351 63.2889 135.737C63.7817 134.164 63.5713 135.169 63.6128 135.037C64.2909 132.866 64.0107 133.304 64.5794 131.405C65.3058 129.003 67.4881 122.113 67.7957 120.978C68.6065 118.051 66.9261 122.838 66.9893 122.541C67.4085 120.647 68.6073 116.885 68.3814 117.035C65.9501 126.222 57.6527 152.318 64.6588 128.562C62.4039 135.011 62.6395 133.014 65.4022 123.608C67.6585 115.809 66.3335 120.9 67.6761 116.873C67.8603 116.363 70.8742 105.918 70.891 105.341C71.0472 105.83 72.2105 102.502 71.8676 104.854C71.8198 105.2 70.6159 109.499 71.2533 108.06C71.571 107.35 72.4098 105.247 72.4562 105.637C72.5988 104.726 72.7388 103.771 72.8798 102.839C74.5882 96.3806 74.9276 95.4732 76.0342 91.9812C75.914 92.1243 74.7431 95.3131 76.1246 90.3707C76.1964 90.1132 76.372 89.9261 77.073 87.4101C78.4814 82.3227 78.7729 81.274 78.1388 85.28C80.4405 75.2518 81.3939 72.6882 83.5179 63.2674C83.648 62.6867 83.7761 62.1063 83.91 61.4926C83.6982 61.958 83.4988 62.4977 83.2811 63.2129C82.5468 65.5934 81.7022 69.6848 79.8987 77.4151C79.6886 77.8204 79.5348 77.9983 79.3186 78.4222C82.7544 65.2035 81.1514 71.7568 82.6977 64.1773C82.7456 63.9394 82.8249 63.5731 82.9224 63.1304C83.6042 60.024 85.2483 52.9096 84.3258 55.7233C84.0761 56.474 82.6863 62.5982 82.7378 61.8578C82.75 61.7136 84.3894 54.2801 84.5816 53.6336C85.6882 49.7541 85.5318 51.0997 85.6252 51.0854C85.6792 51.0717 85.786 50.7313 86.2032 49.24C86.4164 48.5231 86.6843 47.4406 87.2227 46.1525C87.3509 45.8597 87.5394 45.4844 87.7252 45.2977C87.8338 45.1971 87.8217 45.2289 87.8096 45.2221C87.8285 45.2184 87.9714 45.3264 88.0841 45.4819C88.561 46.1387 88.9516 47.1524 89.3607 48.2623C89.6548 49.0727 89.9494 49.9581 90.2527 50.9276C90.4427 51.5407 90.6361 51.7107 90.9964 52.9034C91.6607 55.1523 91.5153 55.2265 92.0702 57.2462C92.6164 59.2544 93.4967 62.061 93.9776 65.1686C94.8395 70.8837 91.8877 57.6182 90.2662 51.8088C89.9624 49.3487 98.505 91.6973 98.4565 94.4268C100.338 105.985 97.3887 86.7271 97.2801 85.7335C97.2593 85.3092 97.9811 85.4076 96.6975 80.6177C96.3198 79.2072 97.1948 85.2277 96.5041 81.674C95.8001 78.0979 96.2448 79.4884 96.2134 79.2249C96.1027 78.3151 95.3224 74.5389 95.2499 74.0355C94.1594 66.3859 94.9928 66.9482 95.9647 77.1826C96.9845 81.5128 95.46 71.4122 96.618 76.8218C98.0215 83.4339 98.4723 88.3376 98.596 89.1764C99.9857 99.2575 98.6901 87.5816 100.35 99.8903C101.199 106.506 98.8009 90.8836 100.611 103.767C100.676 104.241 100.746 104.756 100.821 105.316C102.532 118.42 101.767 111.321 102.25 112.233C102.359 112.438 103.347 119.623 102.101 109.837C101.974 109.575 101.786 109.068 101.621 108.455C101.488 107.118 101.405 105.254 101.33 103.67C101.266 102.381 101.21 101.285 101.138 100.718C100.329 94.4754 100.124 94.8368 99.8417 91.1228C99.9389 93.7793 99.4672 89.4955 99.1414 87.9195C97.9075 82.0445 99.1994 89.8021 97.1405 76.4968C97.3178 78.251 97.4555 79.8259 97.6072 81.537C97.3224 79.9353 97.0332 78.355 96.7348 76.7717C96.6282 74.34 94.9041 65.9329 96.7294 73.4973C95.0351 64.3169 94.0203 60.6403 93.3071 58.7115C93.1726 58.3621 92.8157 56.9784 92.3929 55.391C92.4081 55.7241 92.2933 56.1462 92.2041 55.9084C91.4066 53.7086 90.7608 50.1606 91.2594 51.2928C90.9331 50.1725 90.6581 49.3073 90.5564 48.9913C89.9232 47.0319 91.3324 50.8225 90.8544 49.2199C90.8104 49.0729 90.641 48.5493 90.4053 47.8889C90.0672 46.9834 89.6882 45.8276 89.0077 44.8365C88.8122 44.5851 88.6236 44.3252 88.1815 44.1524C87.6994 43.969 87.2136 44.2211 87.0301 44.3886C86.6449 44.7326 86.5673 44.9351 86.5305 44.9554C86.434 45.0281 86.4483 44.9259 86.5381 44.7451C86.6314 44.5873 86.7757 44.2479 87.3237 43.9835C87.6106 43.8482 88.0317 43.8515 88.2979 43.96C88.5669 44.0606 88.7282 44.1945 88.8442 44.2945C89.0797 44.5105 89.1462 44.6185 89.1352 44.5963C89.1251 44.5829 89.0855 44.529 88.999 44.4331C88.9616 44.3916 88.8837 44.3093 88.7937 44.2326C88.7049 44.1581 88.5772 44.0536 88.3642 43.9594C88.176 43.8696 87.7951 43.7913 87.4642 43.8887C87.2923 43.9347 87.1434 44.0109 87.0235 44.0912C86.897 44.1757 86.7909 44.2725 86.7084 44.3587C86.3613 44.7311 86.1594 45.1331 85.9548 45.5783C85.1649 47.3787 84.4341 50.2714 83.3027 54.8899C83.4828 55.4117 85.5606 46.7966 85.3522 49.0927C85.0679 51.5411 83.4812 56.2622 83.6879 57.4237C83.5241 57.7974 83.4218 57.9597 83.2579 58.2877C82.8433 60.3482 82.5198 61.8135 82.2382 62.9729C81.5013 66.0004 81.1698 66.4411 80.7175 68.1036C79.5541 72.5045 74.5588 92.8637 79.3584 74.6653C78.7469 77.3509 78.0928 80.0904 77.4617 82.7486C76.6236 83.1927 77.359 81.6466 73.9532 94.3885C73.1922 97.1993 72.659 98.0228 72.2679 100.877C72.0354 100.407 69.9836 108.745 69.7142 109.515C68.0858 114.394 72.7659 95.8942 73.9425 93.6693C74.5174 90.4867 74.8275 90.5798 75.6732 87.0839C76.8848 82.0266 76.9992 81.3211 78.6869 75.375C79.829 69.4275 72.8232 98.396 76.7628 80.758C77.506 77.3984 78.9892 70.9977 80.8355 62.6502C81.5714 59.3437 82.3385 55.7674 83.2313 51.9281C83.6962 49.9981 84.1244 48.0451 84.8831 45.8971C85.096 45.3522 85.2771 44.8 85.8018 44.0579C85.866 43.971 85.9661 43.8474 86.0653 43.7435C86.1648 43.6393 86.2846 43.5236 86.4615 43.3955C86.7565 43.1681 87.3977 42.8791 88.045 42.959C89.3514 43.19 89.6161 43.8109 89.9039 44.1127C90.8244 45.4485 91.0832 46.4026 91.5089 47.4944C97.1072 64.7046 100.289 84.9806 102.945 103.451C105.901 124.981 107.621 143.96 108.416 152.703C109.722 167.475 110.647 179.95 111.116 191.518C111.246 195.023 111.329 198.379 111.252 201.78C111.205 203.499 111.137 205.163 110.891 206.974C110.748 207.882 110.636 208.777 110.124 209.976C109.831 210.523 109.463 211.59 107.8 212.123C106.117 212.469 105.384 211.804 105.006 211.677C98.1725 207.496 93.4565 202.737 87.7865 197.84C84.307 194.842 81.2272 191.028 78.3901 187.241C75.6638 183.632 72.9162 179.809 70.1795 175.647C69.5216 174.634 67.5314 171.649 65.4423 167.873C63.6775 164.665 61.7721 160.713 61.2597 156.743C60.6803 152.757 61.8489 149.362 62.4554 148.086C62.889 147.174 62.9889 147.083 62.6094 148.148C62.594 148.194 62.5779 148.242 62.5612 148.292C61.1784 149.146 61.596 163.54 62.1896 151.339C61.8063 152.978 62.0331 150.235 62.8407 148.242C63.2046 147.269 63.6204 146.474 63.7079 146.3C67.1085 140.395 68.4945 139.785 70.0571 138.082C71.7558 136.546 74.1227 134.22 82.6231 129.025ZM135.941 105.319C113.09 116.914 129.971 108.577 125.489 111.517C128.431 110.042 131.35 108.564 134.28 107.045C133.489 107.414 132.721 107.769 131.932 108.133C131.928 108.135 131.925 108.136 131.922 108.138C133.267 107.204 134.605 106.266 135.941 105.319ZM100.573 109.618C100.774 109.155 100.98 108.685 101.196 108.196C101.39 107.752 101.593 107.292 101.811 106.803C103.424 103.827 105.031 100.868 106.646 97.9001C106.5 98.283 106.363 98.6516 106.22 99.0293C104.574 102.105 102.932 105.176 101.299 108.25C101.051 108.716 100.81 109.171 100.573 109.618ZM89.1045 48.4689C89.0938 48.4338 89.0833 48.3992 89.0729 48.3652C88.7327 47.2653 88.4241 46.4852 88.1112 45.9457C87.9585 45.6743 87.7616 45.4568 87.7137 45.4477C87.6849 45.4475 87.8351 45.4985 87.9081 45.4677C87.9756 45.4445 87.9302 45.4636 87.8813 45.5355C87.399 46.2563 86.9492 47.8189 86.1035 50.7768C86.5645 50.1066 87.0523 49.3376 87.5415 48.6613C87.7846 47.8044 88.0138 47.0864 88.2371 46.5586C88.3369 46.3136 88.4746 46.0749 88.493 46.0527C88.4936 46.0367 88.468 46.1194 88.1791 46.2306C87.8807 46.3593 87.3918 46.2369 87.2959 46.149C87.0786 45.9813 87.2712 46.1181 87.3564 46.2776C87.4628 46.4427 87.5795 46.662 87.6944 46.9045C87.921 47.3834 88.1437 47.9449 88.3824 48.612C88.6611 49.3929 88.9568 50.3109 89.2869 51.4519C89.2011 50.8574 89.1043 50.2455 89.004 49.6519C88.8753 49.291 88.7288 48.8915 88.592 48.5371C88.4176 48.082 88.2471 47.6608 88.076 47.2731C87.9738 46.7858 88.3844 47.5487 88.771 48.4731C89.377 49.9264 90.0253 51.6938 89.1103 48.4837C89.1084 48.4788 89.1064 48.4739 89.1045 48.4689ZM77.3202 88.0801C76.6633 90.5749 73.9407 100.395 73.6769 101.774C72.8795 106.438 79.934 78.5266 74.8942 99.1478C74.9727 99.0689 75.0005 99.176 75.0536 99.1902C76.068 95.4552 77.0557 91.7232 78.0318 87.9421C77.7676 88.0922 77.5925 87.9029 77.3202 88.0801ZM64.6652 156.248C64.7515 157.955 66.3822 162.534 68.5655 166.146C71.0002 170.355 73.2771 173.499 71.6236 170.68C71.218 169.966 70.0034 168.126 68.7668 166.035C67.289 163.584 65.9257 160.746 65.4761 159.174C64.9973 157.296 65.5369 159.352 64.8691 155.666C64.7999 155.839 64.7141 155.951 64.6672 156.258C64.6665 156.255 64.6659 156.251 64.6652 156.248ZM64.375 149.117C62.8321 152.958 63.3658 157.351 64.9233 161.116C63.7447 158.305 63.4442 152.423 64.0671 152.171C63.9183 153.247 63.904 154.323 64.0106 155.402C64.0052 156.235 64.0692 157.063 64.1888 157.889C65.3502 161.162 64.4948 159.224 67.2695 165.095C66.5799 163.236 66.2418 162.119 65.6012 160.211C65.1212 158.316 63.6205 155.527 64.8387 150.312C64.6583 151.647 65.081 151.322 65.8771 149.471C66.3098 148.531 66.9271 147.195 67.9591 145.475C68.4752 144.486 65.8461 148.269 65.9316 148.371C65.3983 148.908 66.4819 146.562 65.9383 147.135C65.7877 147.282 65.2517 148.206 64.8741 149.065C64.5942 149.684 64.385 150.262 64.2813 150.422C64.1935 150.539 64.471 149.349 64.5616 148.938C64.5894 148.786 64.5763 148.738 64.481 148.906C64.4527 148.956 64.4173 149.025 64.375 149.117ZM69.6623 143.122C68.935 144.101 71.94 141.243 74.8228 138.969C79.352 135.425 71.7931 140.542 69.6623 143.122ZM100.563 109.637C100.566 109.631 100.57 109.624 100.573 109.618C100.571 109.621 100.57 109.624 100.569 109.628C100.567 109.631 100.565 109.634 100.563 109.637ZM80.6607 75.2227C80.0652 78.1953 78.9673 82.5638 79.224 82.2774C78.8315 83.7126 78.4379 85.1416 78.0417 86.5654C78.0979 86.5654 78.1576 86.5519 78.2132 86.5517C79.3335 82.2522 80.4187 77.9747 81.4894 73.6443C81.2187 74.1501 80.9525 74.6329 80.6607 75.2227ZM68.1046 121.943C66.5158 127.285 68.0711 122.869 67.8398 124.077C67.6079 125.299 66.0909 130.028 66.4213 129.515C67.3777 126.362 68.3496 123.096 69.2855 119.887C68.8638 120.675 68.5106 121.212 68.1014 121.953C68.1025 121.95 68.1035 121.946 68.1046 121.943ZM188.358 68.1136C191.429 65.9993 190.384 67.0418 196.042 62.5914C196.094 62.5502 196.146 62.5087 196.198 62.467C196.194 62.4704 196.189 62.4738 196.185 62.4771C196.136 62.5124 196.086 62.5479 196.037 62.5837C190.319 66.6904 182.809 71.7009 176.372 76.019C180.497 73.586 183.442 71.4406 188.358 68.1136ZM92.065 61.2552C92.583 62.7554 90.983 55.549 90.3726 54.0166C89.4706 51.5514 91.3374 58.9343 92.065 61.2552ZM136.342 33.7244C138.315 29.3955 134.694 34.9001 130.638 42.7718C129.768 44.4587 128.877 46.2544 128.013 48.0814C127.581 48.9687 131.036 42.4483 130.131 44.439C130.036 44.635 128.204 48.2514 127.822 49.1805C127.437 50.1078 128.033 49.23 127.367 50.731C126.185 53.3609 123.248 59.1735 122.516 61.2119C122.413 61.4745 124.257 57.8813 124.377 57.6571C126.22 53.9468 127.752 50.2524 128.034 49.6758C129.488 46.7163 129.455 47.2571 129.87 46.5326C130.407 45.6012 131.131 44.1289 131.564 43.2479C131.766 42.836 131.905 42.551 131.935 42.4974C133.042 40.5373 132.573 41.507 131.671 43.3027C130.57 45.4866 128.859 48.9217 128.524 49.7001C126.893 53.525 128.66 50.1159 124.561 59.1784C124.17 60.0378 119.547 70.3426 125.602 57.4602C116.131 79.9907 127.48 53.212 132.556 43.7575C133.242 42.3897 133.761 41.3661 134.013 40.8567C134.949 38.9672 133.294 41.7056 133.811 40.5308C134.977 37.8539 137.323 33.4758 136.869 33.727C135.961 34.2377 133.539 39.3119 131.509 43.2198C131.336 43.5519 131.164 43.877 130.995 44.1909C131.077 43.8013 131.073 43.5842 131.222 43.0719C131.257 42.9512 131.301 42.8145 131.356 42.6561C130.863 43.9224 136.138 34.0893 136.343 33.7249C136.342 33.7247 136.342 33.7245 136.342 33.7244ZM116.508 98.7474C118.587 100.623 120.246 100.6 121.476 100.754C122.78 100.827 123.978 100.835 126.527 100.572C126.687 100.554 126.853 100.535 127.027 100.514C129.383 99.9193 128.312 100.067 126.489 100.312C124.525 100.611 121.702 100.538 121.165 100.401C118.708 99.9982 117.791 99.2066 117.017 98.4587C116.289 97.6491 115.563 96.819 114.96 94.46C115.11 96.1329 115.495 97.4864 116.508 98.7474ZM129.59 48.4617C127.89 52.3115 131.233 45.5756 131.418 45.3238C133.194 42.5052 123.217 62.6836 129.59 48.4617ZM74.9764 177.856C76.188 179.617 75.5577 178.402 76.6886 179.909C77.4844 180.974 79.5509 183.92 80.7301 185.471C81.2222 186.124 81.5519 186.538 81.5496 186.48C81.5458 186.437 81.2457 185.992 80.8355 185.391C79.3524 183.213 76.4797 179.006 81.1318 185.167C81.3555 185.458 81.5926 185.767 81.8479 186.098C81.6561 185.742 81.7758 185.821 81.7036 185.631C81.5575 185.439 81.4188 185.255 81.272 185.061C79.4557 182.657 77.6682 180.193 75.9495 177.72C76.8179 179.289 77.7266 180.889 78.5992 182.381C77.4029 180.99 76.9589 180.037 76.9032 179.961C76.903 179.961 76.9029 179.961 76.9027 179.961C74.9114 177.196 72.2972 173.875 74.9764 177.856ZM179.127 77.0732C179.354 76.3236 175.689 79.8328 174.058 81.1317C174.057 81.1326 174.055 81.1335 174.054 81.1344C172.437 82.4391 170.038 84.0028 171.017 83.5204C171.884 82.9298 173.001 82.0954 174.124 81.2182C176.607 79.2814 179.111 77.1297 179.127 77.0727C179.127 77.0729 179.127 77.073 179.127 77.0732ZM148.083 93.0227C152.76 90.61 151.967 90.901 157.702 87.9724C157.43 87.9961 157.158 88.0169 156.888 88.0407C152.382 90.4408 152.857 90.5861 147.481 93.0494C146.596 93.436 148.37 92.3552 144.441 94.2398C145.652 93.8456 146.885 93.4383 148.083 93.0227ZM170.69 80.0292C165.545 83.1925 161.875 86.4273 171.205 80.3025C172.579 79.3802 174.544 77.616 170.69 80.0292ZM81.4637 132.927C72.8875 138.596 82.6405 132.169 85.0684 131.012C68.1049 142.165 81.41 132.958 87.4796 129.893C88.5222 129.345 89.339 128.952 89.6812 128.838C92.1693 127.296 96.8662 124.463 91.4704 127.277C89.2226 128.472 90.11 128.143 89.9738 128.216C88.7904 128.862 87.9861 129.291 87.3295 129.632C85.68 130.503 84.8665 130.803 81.4637 132.927ZM114.13 89.0512C114.103 89.4317 114.297 88.8499 114.238 90.0538C114.134 91.2539 114.236 93.9312 114.429 94.1606C114.411 94.4198 114.223 89.5881 114.621 87.6627C114.632 87.5716 114.642 87.4869 114.651 87.4099C114.827 86.013 114.655 85.6981 114.307 87.6162C114.241 88.0148 114.18 88.4643 114.13 89.0512ZM143.178 95.7017C147.839 93.5292 139.927 96.4086 138.881 96.7446C129.736 100.15 143.417 95.5927 143.178 95.7017ZM101.96 120.514C91.03 126.47 99.3284 122.694 106.422 119.474C107.312 118.959 108.231 118.431 109.11 117.926C105.099 120.351 97.9339 124.324 114.089 115.908C105.125 120.269 112.554 116.462 112.603 116.416C113.279 115.309 100.217 122.21 101.97 120.509C101.966 120.51 101.963 120.512 101.96 120.514ZM118.604 73.1233C120.374 68.0359 126.109 55.216 123.142 61.0646C121.512 65.0506 119.975 69.0563 118.604 73.1233ZM104.905 132.81C104.618 128.392 104.181 124.332 103.543 118.914C103.859 123.827 103.465 120.618 103.215 118.98C102.837 116.498 103.542 122.54 103.523 122.558C103.275 122.474 102.822 118.62 103.79 127.4C103.476 125.237 103.157 123.102 102.83 120.948C103.574 127.631 103.58 129.228 103.835 133.491C103.859 129.322 104.148 134.777 104.85 139.683C105.203 142.133 105.056 135.059 104.903 132.794C104.904 132.799 104.905 132.805 104.905 132.81ZM90.5204 126.411C89.431 127.101 88.4691 127.764 87.4289 128.463C87.235 128.575 87.0424 128.687 86.8511 128.798C85.866 129.372 84.9045 129.943 83.938 130.533C83.7569 130.557 83.5982 130.565 83.3961 130.606C81.8596 131.518 82.5075 131.243 82.0642 131.527C82.064 131.527 82.0638 131.526 82.0636 131.526C75.7234 135.73 73.1651 137.52 68.7251 141.605C68.885 141.758 69.0449 141.911 69.2047 142.065C70.1099 141.09 71.0852 140.155 72.0843 139.269C72.5425 138.718 73.0167 138.173 73.5057 137.632C74.7599 136.719 76.0347 135.861 77.34 135.029C78.3328 134.282 79.5488 133.42 80.4265 132.806C85.9328 129.976 73.9737 137.28 74.1767 137.768C74.0926 137.77 84.2863 130.89 87.1591 129.335C87.346 129.22 87.4976 129.126 87.6066 129.055C87.7071 128.99 87.2799 129.139 87.0657 129.172C86.9485 129.192 86.8924 129.178 87.0119 129.078C87.2029 128.919 87.8858 128.514 89.5867 127.669C90.3113 127.32 91.0201 128.023 95.5494 124.71C96.2007 124.241 93.4499 124.972 90.5204 126.411ZM65.4653 165.048C64.3935 162.254 65.3064 164.239 66.8764 167.08C69.5579 171.965 74.3915 179.287 70.2759 172.411C72.4787 175.293 72.0934 174.732 70.37 171.529C70.2172 171.249 71.6279 173.321 71.5249 173.134C69.7885 170.219 67.7122 166.71 67.9384 166.554C67.9295 166.538 67.9206 166.523 67.9117 166.507C67.4684 165.733 67.0629 164.996 66.653 164.204C68.1934 167.687 65.1548 162.447 64.2842 160.223C63.8428 159.23 64.6374 161.589 64.2551 160.758C64.0482 160.47 63.2006 157.076 63.1662 156.927C62.948 156.637 62.8879 158.991 64.2492 162.534C64.249 162.534 64.2488 162.534 64.2487 162.534C64.6296 163.399 65.0332 164.219 65.4653 165.048ZM191.25 65.4523C192.518 64.8717 196.768 61.5259 188.834 68.2368C189.273 67.9678 189.73 67.6832 190.171 67.4122C191.525 66.2971 192.832 65.2179 194.21 64.0895C194.977 63.17 195.986 62.1955 197.032 61.2915C200.722 58.013 205.209 55.9551 200.814 58.1706C200.198 58.4913 196.929 61.087 200.092 58.4358C200.088 58.4389 200.083 58.442 200.079 58.4451C198.656 59.5181 197.667 60.3356 196.823 61.0284C194.957 62.5721 193.903 63.4588 191.25 65.4523ZM160.994 88.9382C150.489 97.0104 176.201 78.8076 171.694 81.5674C171.355 81.9043 160.387 89.8757 160.994 88.9382ZM162.976 86.8916C163.357 86.6748 163.709 86.4699 164.037 86.2768C168.136 83.8397 168.192 83.3581 167.651 83.5344C167.188 83.6815 164.924 85.103 163.76 85.7983C163.453 85.9822 163.224 86.117 163.126 86.1679C161.593 86.9629 164.741 85.0946 162.748 86.1231C162.113 86.5104 152.978 91.3121 152.539 91.4887C150.24 92.7627 153.814 91.3184 153.161 91.6912C151.04 92.9287 147.957 94.2177 147.388 94.672C146.164 95.6748 151.608 92.6386 152.524 92.1323C155.33 90.6729 155.18 90.9796 157.292 89.8982C159.397 88.8074 160.714 87.9886 162.537 86.967C163.144 86.6261 162.714 87.0401 162.976 86.8916ZM179.24 75.8973C174.224 79.5494 187.017 71.5408 188.405 70.3971C192.604 67.2286 181.674 74.2059 179.24 75.8973ZM66.0619 145.795C67.9094 143.119 65.7443 145.204 64.1551 148.774C62.9232 151.446 62.8649 155.001 63.2101 156.603C63.1265 156.143 62.9456 151.828 64.4062 148.875C65.0141 147.458 65.7384 146.335 66.0619 145.795ZM105.041 118.957C100.426 121.364 106.806 118.689 110.689 116.754C112.824 115.329 110.707 116.452 108.163 117.707C105.62 118.965 108.646 117.088 105.041 118.957ZM113.431 85.8813C113.399 86.0485 113.29 86.6402 113.181 87.4499C112.827 89.6755 112.744 93.8604 113.719 96.1392C114.153 97.2827 114.646 97.9141 114.622 97.8262C114.64 97.7339 114.004 96.9435 113.539 94.7623C113.394 94.3765 112.94 90.9168 113.514 87.4991C113.99 84.1678 114.947 80.9473 115.051 80.4748C115.51 78.5949 113.96 82.9911 113.431 85.8813ZM127.148 107.386C124.821 108.879 122.396 110.086 124.805 109.248C124.809 109.247 124.812 109.245 124.815 109.243C118.632 112.454 118.049 111.976 116.712 112.659C112.029 115.04 116.702 113.258 113.82 114.865C120.618 111.323 118.795 112.596 124.017 110.008C125.191 109.429 129.768 106.896 130.393 106.435C131.017 105.98 128.477 106.874 127.148 107.386ZM121.811 61.6606C119.242 67.2245 117.606 72.5996 120.908 64.792C122.57 61.0073 123.4 58.2798 121.811 61.6606ZM73.5599 96.2018C73.9098 95.3433 74.2739 94.4236 74.6377 93.4967C74.1005 95.6743 73.5478 97.8831 72.9986 100.049C73.4201 98.3276 73.8412 96.592 74.2607 94.8433C73.1474 98.9161 72.4321 100.742 73.5571 96.2125C73.558 96.2089 73.559 96.2054 73.5599 96.2018ZM25.6121 238.721C24.8196 240.467 23.8203 244.056 24.0187 243.618C25.4905 240.373 26.6928 236.348 25.6121 238.721ZM62.2829 153.574C62.2341 157.381 62.8325 157.867 62.7357 156.954C62.7135 156.036 62.6214 153.615 63.1236 151.422C62.5891 154.145 62.7991 149.314 62.2829 153.574ZM44.1342 189.15C44.3946 188.574 44.6567 187.993 44.943 187.343C44.1252 189.415 43.9512 189.757 44.1342 189.15ZM112.488 88.7108C112.415 89.248 112.117 91.5913 112.453 93.9979C112.703 96.4361 114.081 98.7231 114.535 99.1388C115.456 100.044 114.58 99.217 113.776 97.4903C112.951 95.7596 112.653 93.1635 112.646 91.2821C112.585 90.8648 112.638 87.617 112.486 88.7282C112.487 88.7224 112.488 88.7166 112.488 88.7108ZM70.8802 105.321C70.8889 105.311 70.8922 105.318 70.891 105.341C70.8881 105.332 70.8824 105.333 70.8802 105.321ZM76.9202 167.126C76.8934 167.161 76.8753 167.178 76.8698 167.17C76.8846 167.158 76.9072 167.132 76.9202 167.126ZM158.572 90.0906C161.184 89.314 166.354 85.9948 162.015 88.1615C161.773 88.2865 159.143 89.7865 158.572 90.0906Z" fill="#180108"/>
</svg>
