<svg width="41" height="40" viewBox="0 0 41 40" fill="none" xmlns="http://www.w3.org/2000/svg">
<g clip-path="url(#clip0_1026_60)">
<path fill-rule="evenodd" clip-rule="evenodd" d="M10.8032 34.6333C10.0865 34.4 10.2032 34.5 10.3032 34.4166C11.1918 33.6368 11.7565 32.5527 11.886 31.3776C12.0155 30.2024 11.7006 29.0213 11.0032 28.0667C10.3032 27.2667 8.5865 26.4 8.35317 27.3166C8.32344 27.4624 8.35221 27.614 8.43328 27.7387C8.51436 27.8635 8.64123 27.9513 8.7865 27.9833C10.9532 28.5 10.9532 31.8 9.2365 32.9833C8.7904 33.2524 8.29186 33.4228 7.77441 33.4832C7.25695 33.5436 6.73257 33.4925 6.2365 33.3333C3.1365 32.65 3.66984 27.1333 7.90317 27.4333C8.03136 27.4333 8.1543 27.3824 8.24494 27.2918C8.33558 27.2011 8.3865 27.0782 8.3865 26.95C8.3865 26.8218 8.33558 26.6989 8.24494 26.6082C8.1543 26.5176 8.03136 26.4667 7.90317 26.4667C6.90281 26.2914 5.87259 26.4585 4.97885 26.9408C4.08511 27.4232 3.38002 28.1927 2.9774 29.125C2.57478 30.0574 2.49815 31.0983 2.75987 32.0795C3.02158 33.0608 3.60638 33.9253 4.41984 34.5333C3.46713 34.9134 2.64103 35.5547 2.0365 36.3833C1.71504 36.8351 1.4862 37.346 1.3632 37.8867C1.2402 38.4273 1.22546 38.9869 1.31984 39.5333C1.34108 39.6482 1.40189 39.752 1.4917 39.8268C1.58152 39.9015 1.69467 39.9424 1.8115 39.9424C1.92834 39.9424 2.04149 39.9015 2.13131 39.8268C2.22112 39.752 2.28193 39.6482 2.30317 39.5333C2.3966 39.0715 2.59633 38.6378 2.8865 38.2666C3.61724 37.3853 4.39621 36.5452 5.21984 35.75L5.90317 35.25C6.86186 35.4794 7.86115 35.4794 8.81984 35.25C10.0629 35.9263 11.0865 36.9441 11.7698 38.1833C12.0527 38.6346 12.298 39.1085 12.5032 39.6C12.5341 39.7436 12.6209 39.8691 12.7443 39.9488C12.8678 40.0285 13.0178 40.0559 13.1615 40.025C13.3052 39.994 13.4306 39.9073 13.5103 39.7838C13.5901 39.6604 13.6174 39.5103 13.5865 39.3667C13.6506 38.3896 13.4195 37.4158 12.9231 36.5717C12.4268 35.7277 11.6882 35.0523 10.8032 34.6333Z" fill="white"/>
<path fill-rule="evenodd" clip-rule="evenodd" d="M23.8865 34.6333C23.1699 34.4 23.2865 34.5 23.3865 34.4167C24.2752 33.6368 24.8398 32.5527 24.9694 31.3776C25.0989 30.2024 24.784 29.0213 24.0865 28.0667C23.3865 27.2667 21.6699 26.4 21.4365 27.3166C21.4068 27.4624 21.4356 27.614 21.5167 27.7387C21.5977 27.8635 21.7246 27.9513 21.8699 27.9833C24.0365 28.5 24.0365 31.8 22.3199 32.9833C21.8738 33.2524 21.3752 33.4228 20.8578 33.4832C20.3403 33.5436 19.8159 33.4925 19.3199 33.3333C16.2032 32.65 16.7699 27.1333 20.9032 27.4333C21.0314 27.4444 21.1587 27.404 21.2572 27.3212C21.3556 27.2384 21.4172 27.1198 21.4282 26.9917C21.4393 26.8635 21.3989 26.7361 21.3161 26.6377C21.2333 26.5392 21.1147 26.4777 20.9865 26.4667C19.9862 26.2914 18.956 26.4585 18.0622 26.9408C17.1685 27.4232 16.4634 28.1927 16.0608 29.125C15.6582 30.0574 15.5815 31.0983 15.8432 32.0795C16.105 33.0608 16.6898 33.9253 17.5032 34.5333C16.5531 34.8933 15.726 35.5179 15.1199 36.3333C14.7984 36.7851 14.5696 37.296 14.4466 37.8367C14.3236 38.3773 14.3088 38.937 14.4032 39.4833C14.4245 39.5982 14.4853 39.702 14.5751 39.7768C14.6649 39.8515 14.778 39.8924 14.8949 39.8924C15.0117 39.8924 15.1249 39.8515 15.2147 39.7768C15.3045 39.702 15.3653 39.5982 15.3865 39.4833C15.6997 38.5069 16.2765 37.636 17.0532 36.9667C17.5611 36.284 18.181 35.6923 18.8865 35.2167C19.8452 35.446 20.8445 35.446 21.8032 35.2167C22.7291 35.6754 23.5169 36.3712 24.0865 37.2333C24.6844 37.9125 25.1787 38.6763 25.5532 39.5C25.5842 39.6436 25.6709 39.7691 25.7944 39.8488C25.9178 39.9285 26.0679 39.9559 26.2115 39.925C26.3552 39.894 26.4807 39.8073 26.5604 39.6838C26.6401 39.5604 26.6675 39.4103 26.6365 39.2667C26.6832 38.3097 26.4474 37.3603 25.9584 36.5364C25.4694 35.7125 24.7489 35.0507 23.8865 34.6333Z" fill="white"/>
<path fill-rule="evenodd" clip-rule="evenodd" d="M39.8365 39.2669C39.8468 38.4526 39.674 37.6463 39.3306 36.9078C38.9873 36.1692 38.4824 35.5173 37.8532 35.0003C37.4273 34.7419 36.9589 34.5613 36.4698 34.4669C39.0698 32.4503 38.7365 27.6003 35.2698 26.9003C35.1262 26.8693 34.9761 26.8967 34.8527 26.9764C34.7292 27.0561 34.6425 27.1816 34.6115 27.3253C34.5806 27.4689 34.608 27.619 34.6877 27.7424C34.7674 27.8659 34.8929 27.9527 35.0365 27.9836C37.7365 28.6336 37.4532 34.4669 32.4865 33.3836C29.3865 32.7003 29.9198 27.1836 34.0698 27.4836C34.198 27.4969 34.3262 27.4586 34.4263 27.3774C34.5263 27.2961 34.5899 27.1784 34.6032 27.0503C34.6164 26.9221 34.5782 26.7939 34.497 26.6938C34.4157 26.5938 34.298 26.5302 34.1698 26.5169C33.1679 26.3364 32.1344 26.4996 31.2369 26.9801C30.3394 27.4606 29.6305 28.2303 29.2253 29.1642C28.8201 30.0981 28.7423 31.1416 29.0045 32.1253C29.2667 33.109 29.8535 33.9753 30.6698 34.5836C30.1276 34.8099 29.6176 35.1069 29.1532 35.4669C28.5504 35.9418 28.0857 36.5694 27.8073 37.2845C27.5289 37.9996 27.4469 38.7761 27.5698 39.5336C27.5911 39.6485 27.6519 39.7523 27.7417 39.827C27.8315 39.9018 27.9447 39.9427 28.0615 39.9427C28.1784 39.9427 28.2915 39.9018 28.3813 39.827C28.4711 39.7523 28.5319 39.6485 28.5532 39.5336C28.8663 38.5572 29.4431 37.6863 30.2198 37.0169C30.782 36.31 31.4579 35.7017 32.2198 35.2169C33.1785 35.4469 34.1779 35.4469 35.1365 35.2169C36.0707 35.6698 36.8654 36.3666 37.4365 37.2336C38.0041 37.9431 38.4697 38.7285 38.8198 39.5669C38.8835 39.669 38.9788 39.7474 39.0912 39.7901C39.2036 39.8328 39.3269 39.8375 39.4422 39.8035C39.5576 39.7695 39.6586 39.6986 39.7298 39.6016C39.801 39.5047 39.8385 39.3872 39.8365 39.2669Z" fill="white"/>
<path fill-rule="evenodd" clip-rule="evenodd" d="M32.9366 16.017C32.9366 14.8004 35.7699 10.4504 33.2866 9.35036C33.1532 9.35036 29.9532 7.80036 29.8032 7.78369C29.1699 7.78369 28.9199 8.48369 29.7199 9.06702C30.5199 9.65036 32.3699 10.7337 32.4699 10.867C32.5699 11.0004 31.6866 14.2004 31.7699 15.767C31.1866 15.6004 17.6366 16.117 13.8032 15.9504C9.96989 15.7837 8.96989 15.8504 9.21989 19.817C9.21989 20.0004 9.21989 20.7004 9.31989 20.917C8.98656 21.5504 12.6532 21.7004 12.4532 21.7004C12.2718 24.1177 12.7197 26.5409 13.7532 28.7337C13.7842 28.8773 13.8709 29.0028 13.9944 29.0825C14.1178 29.1622 14.2679 29.1896 14.4116 29.1587C14.5552 29.1278 14.6807 29.041 14.7604 28.9175C14.8401 28.7941 14.8675 28.644 14.8366 28.5004C14.7366 27.5837 14.7032 26.4837 14.5699 25.4004C14.3491 24.1249 14.003 22.8744 13.5366 21.667C16.6366 21.667 25.5032 21.9504 28.6366 22.1837C27.9855 23.2935 27.5077 24.4963 27.2199 25.7504C26.7032 28.167 26.4199 28.617 27.2199 28.8504C27.3532 28.8504 27.6032 28.8504 27.8532 28.5837L28.1699 28.017C29.1904 26.2789 29.7631 24.3145 29.8366 22.3004C30.6366 22.4504 31.9032 22.7504 32.5199 22.3004C33.1366 21.8504 32.9866 20.367 33.1532 19.717C33.4366 18.3337 34.0699 16.667 32.9366 16.017ZM31.2699 20.467C31.1199 20.467 15.3199 20.267 12.4699 20.467C11.7895 20.4637 11.1101 20.4136 10.4366 20.317C10.4841 20.0805 10.4841 19.8369 10.4366 19.6004V17.2337C12.1066 17.2005 13.7769 17.2785 15.4366 17.467C18.4199 17.467 22.1032 17.017 25.4366 17.017C25.5699 17.017 32.1032 17.2504 32.1032 17.367C32.1032 17.4837 31.0866 18.867 31.2366 20.467H31.2699Z" fill="white"/>
<path fill-rule="evenodd" clip-rule="evenodd" d="M10.9032 10.9168C10.1882 9.01884 9.76129 7.02454 9.63652 5.00018C9.56866 4.34446 9.67802 3.68255 9.95318 3.08351C10.1365 3.43351 10.3199 4.15018 10.4532 4.36685C11.6988 6.37806 13.0915 8.2944 14.6199 10.1002C15.0199 10.5168 15.5365 10.9668 16.0365 10.6668C17.7032 9.70018 18.9032 10.6668 21.0365 10.7835C20.6212 11.9718 20.5349 13.2502 20.7865 14.4835C20.7865 14.7168 21.3865 15.4668 21.7699 14.7502C22.3249 13.5 22.4821 12.1093 22.2199 10.7668C22.609 10.73 22.994 10.6575 23.3699 10.5502C24.3638 10.8726 25.2753 11.408 26.041 12.119C26.8067 12.83 27.4081 13.6995 27.8032 14.6668C27.9032 15.1502 29.1699 15.2668 29.1699 14.5168C29.0764 13.5666 28.7129 12.663 28.1222 11.9128C27.5315 11.1626 26.7383 10.5972 25.8365 10.2835C24.4365 9.76685 24.5699 10.1002 25.1365 9.63351C26.1207 8.76096 26.7801 7.58063 27.0071 6.28511C27.2341 4.98959 27.0153 3.65538 26.3865 2.50018C25.9199 1.66685 24.6199 0.383513 24.1199 1.21685C24.0464 1.34543 24.0262 1.49766 24.0636 1.64094C24.101 1.78423 24.193 1.90719 24.3199 1.98351C27.1699 3.78351 25.9865 10.1835 20.2032 8.78351C19.4629 8.59239 18.8065 8.16189 18.3363 7.55902C17.8661 6.95615 17.6083 6.21474 17.6032 5.45018C17.6412 5.52683 17.6976 5.59285 17.7674 5.6423C17.8373 5.69176 17.9183 5.7231 18.0032 5.73351C18.889 5.99908 19.8272 6.03908 20.7324 5.84989C21.6376 5.66069 22.4812 5.2483 23.1865 4.65018C23.6429 5.02599 24.1277 5.3659 24.6365 5.66685C24.747 5.76409 24.8916 5.81346 25.0385 5.80408C25.1854 5.7947 25.3226 5.72735 25.4199 5.61685C25.5171 5.50634 25.5665 5.36173 25.5571 5.21482C25.5477 5.06792 25.4804 4.93076 25.3699 4.83351C24.9532 4.36685 24.4699 3.45018 24.1865 3.06685C23.1699 1.78351 21.3199 4.05018 19.6365 4.51685C17.9532 4.98351 17.8032 4.51685 17.6032 5.05018C17.5966 4.46819 17.7167 3.89174 17.9549 3.36072C18.1932 2.8297 18.544 2.35681 18.9831 1.97478C19.4222 1.59275 19.9391 1.31071 20.498 1.14819C21.0568 0.985663 21.6444 0.946535 22.2199 1.03351C22.3569 1.04898 22.4944 1.00939 22.6023 0.923433C22.7101 0.837479 22.7794 0.712208 22.7949 0.57518C22.8103 0.438151 22.7707 0.300589 22.6848 0.192756C22.5988 0.0849224 22.4735 0.0156507 22.3365 0.000179783C21.3202 -0.178068 20.2742 -0.0685804 19.3169 0.316276C18.3595 0.701133 17.5288 1.34603 16.9186 2.17812C16.3084 3.01021 15.943 3.99634 15.8637 5.02514C15.7844 6.05394 15.9944 7.08442 16.4699 8.00018C17.2699 9.66685 17.7699 8.66685 15.8199 9.35018C14.3809 7.51173 13.1092 5.54837 12.0199 3.48351C11.7284 2.73129 11.3051 2.03708 10.7699 1.43351C10.4979 1.21466 10.154 1.1053 9.80558 1.12689C9.45716 1.14847 9.12938 1.29944 8.88652 1.55018C8.45245 2.00393 8.12656 2.54991 7.93319 3.14733C7.73983 3.74475 7.68399 4.37815 7.76985 5.00018C7.90816 7.23159 8.47397 9.41564 9.43652 11.4335C10.3015 13.1897 11.7023 14.6254 13.4365 15.5335C13.8199 15.7835 14.6199 15.3835 14.2865 14.9335C13.5865 13.9835 11.5199 12.9002 10.9032 10.9168Z" fill="white"/>
</g>
<defs>
<clipPath id="clip0_1026_60">
<rect width="40" height="40" fill="white" transform="translate(0.553223)"/>
</clipPath>
</defs>
</svg>
