<svg width="500" height="93" viewBox="0 0 500 93" fill="none" xmlns="http://www.w3.org/2000/svg">
<g clip-path="url(#clip0_3093_1644)">
<path d="M407.6 64.9002V64.7002C407.546 61.0214 408.231 57.3692 409.614 53.9599C410.997 50.5505 413.05 47.4534 415.652 44.8518C418.253 42.2502 421.35 40.1972 424.76 38.8141C428.169 37.4311 431.821 36.7463 435.5 36.8002C439.161 36.7327 442.798 37.4024 446.195 38.7693C449.591 40.1362 452.678 42.1724 455.272 44.7568C457.866 47.3412 459.913 50.4209 461.292 53.8127C462.672 57.2045 463.354 60.8391 463.3 64.5002V64.7002C463.3 79.9002 451.6 92.6002 435.4 92.6002C419.2 92.6002 407.6 80.1002 407.6 64.9002ZM449.3 65.0002V64.8002C449.3 57.3002 443.4 50.9002 435.3 50.9002C426.9 50.9002 421.5 57.2002 421.5 64.6002V64.8002C421.5 72.3002 427.4 78.7002 435.5 78.7002C444 78.7002 449.3 72.4002 449.3 65.0002ZM442.9 64.9002V64.8002C442.9 60.7002 439.7 57.3002 435.3 57.3002C434.321 57.2726 433.346 57.4451 432.436 57.8072C431.526 58.1694 430.699 58.7134 430.006 59.4062C429.313 60.0989 428.769 60.9257 428.407 61.836C428.045 62.7463 427.872 63.7209 427.9 64.7002V64.8002C427.9 68.9002 431.1 72.3002 435.5 72.3002C436.479 72.3278 437.454 72.1553 438.364 71.7931C439.274 71.431 440.101 70.887 440.794 70.1942C441.487 69.5015 442.031 68.6747 442.393 67.7644C442.755 66.8541 442.928 65.8795 442.9 64.9002ZM325.5 41.0002H342.6V47.7002C345.7 43.6002 350.2 39.9002 357.1 39.9002C363.6 39.9002 368.5 42.8002 371.1 47.8002C375.3 42.9002 380.3 39.9002 387.4 39.9002C397.7 39.9002 404 46.4002 404 57.7002V89.7002H386.9V63.3002C386.9 58.0002 384.3 55.2002 380.2 55.2002C376.1 55.2002 373.2 58.0002 373.2 63.3002V89.8002H356.1V63.3002C356.1 58.0002 353.5 55.2002 349.4 55.2002C345.4 55.2002 342.5 58.0002 342.5 63.3002V89.8002H325.4V41.0002H325.5ZM272.2 72.9002V41.0002H289.3V67.4002C289.3 72.7002 292.1 75.6002 296.2 75.6002C300.2 75.6002 303.3 72.7002 303.3 67.4002V41.0002H320.4V89.8002H303.3V83.1002C301.686 85.4917 299.513 87.4526 296.968 88.8121C294.423 90.1715 291.585 90.8884 288.7 90.9002C278.4 90.9002 272.2 84.0002 272.2 72.9002ZM213.4 80.4002L223.1 68.8002C228.803 73.6398 236.021 76.3288 243.5 76.4002C248.2 76.4002 250.7 74.8002 250.7 72.1002V71.9002C250.7 69.3002 248.6 67.8002 240.1 65.9002C226.7 62.8002 216.3 59.0002 216.3 46.1002V45.9002C216.3 34.2002 225.6 25.7002 240.7 25.7002C251.4 25.7002 259.8 28.6002 266.6 34.1002L257.9 46.4002C252.797 42.5978 246.659 40.4356 240.3 40.2002C236.1 40.2002 234 42.0002 234 44.3002V44.5002C234 47.4002 236.2 48.6002 244.9 50.6002C259.4 53.8002 268.4 58.4002 268.4 70.3002V70.5002C268.4 83.4002 258.2 91.1002 242.9 91.1002C232.104 91.171 221.64 87.3754 213.4 80.4002ZM163.7 77.0002L188.2 53.9002H163.7V41.0002H208.9V53.8002L184.2 77.0002H208.8V89.8002H163.6V77.0002H163.7ZM113.5 77.0002L138 53.8002H113.5V41.0002H158.7V53.8002L134 77.0002H158.6V89.8002H113.4V77.0002H113.5ZM60.2 72.9002V41.0002H77.3V67.4002C77.3 72.7002 80.1 75.6002 84.2 75.6002C88.2 75.6002 91.3 72.7002 91.3 67.4002V41.0002H108.4V89.8002H91.3V83.1002C89.6864 85.4917 87.5126 87.4526 84.968 88.8121C82.4234 90.1715 79.585 90.8884 76.7 90.9002C66.4 90.9002 60.2 84.0002 60.2 72.9002ZM0 26.7002H32.3C40.2 26.7002 45.8 28.7002 49.5 32.4002C50.8183 33.7441 51.8519 35.3401 52.5392 37.0927C53.2265 38.8452 53.5533 40.7184 53.5 42.6002V42.8002C53.5 50.1002 49.4 54.4002 43.8 56.9002C51.4 59.4002 56.3 63.8002 56.3 72.3002V72.5002C56.3 83.3002 47.5 89.9002 32.5 89.9002H0V26.7002ZM28 51.8002C33.3 51.8002 36.3 50.0002 36.3 46.3002V46.1002C36.3 42.7002 33.6 40.7002 28.4 40.7002H17V51.8002H28ZM30.5 75.7002C35.8 75.7002 38.9 73.6002 38.9 69.9002V69.7002C38.9 66.3002 36.2 64.0002 30.4 64.0002H17V75.6002H30.5V75.7002Z" fill="#3B79CC"/>
<path d="M442.102 19C450.964 19 460.697 22.9195 468.216 29.7334C475.728 36.5414 481.002 46.2127 481.002 57.7002C481.002 61.0189 478.33 63.5996 475.102 63.5996H475.01C473.985 63.5836 473 63.1933 472.243 62.502C471.486 61.8106 471.007 60.8662 470.898 59.8467L470.897 59.8369C468.87 43.8181 456.697 31.0325 439.863 29.1035H439.864C438.835 28.9739 437.886 28.477 437.194 27.7031C436.546 26.9778 436.165 26.0552 436.108 25.0879L436.102 24.8936V24.8145C436.194 21.5867 438.87 19 442.102 19ZM442.502 0.5C469.268 0.500228 499.502 23.6172 499.602 57.2012C499.601 60.4245 496.925 63.0996 493.701 63.0996H493.602C492.604 63.0772 491.651 62.683 490.93 61.9941C490.206 61.3031 489.767 60.3658 489.7 59.3672V59.3604L489.593 58.1719C488.348 45.9166 482.892 34.4567 474.138 25.7559C465.102 16.7754 453.148 11.3279 440.442 10.4014H440.443C438.272 10.2204 436.602 8.5101 436.602 6.5V6.40039C436.602 4.83561 437.224 3.33498 438.33 2.22852C439.437 1.12205 440.937 0.5 442.502 0.5Z" fill="#3B79CC" stroke="black"/>
</g>
<defs>
<clipPath id="clip0_3093_1644">
<rect width="500" height="92.6" fill="white"/>
</clipPath>
</defs>
</svg>
