<svg width="129" height="27" viewBox="0 0 129 27" fill="none" xmlns="http://www.w3.org/2000/svg">
<g clip-path="url(#clip0_3093_1664)">
<mask id="mask0_3093_1664" style="mask-type:luminance" maskUnits="userSpaceOnUse" x="0" y="0" width="129" height="27">
<path d="M129 0.364258H0V26.6367H129V0.364258Z" fill="white"/>
</mask>
<g mask="url(#mask0_3093_1664)">
<path fill-rule="evenodd" clip-rule="evenodd" d="M31.5367 17.5616C31.2532 17.3815 31.0234 17.0581 31.0234 16.6262C31.0234 16.0156 31.483 15.549 32.0849 15.549C32.2791 15.549 32.4746 15.6022 32.6156 15.6936C33.5179 16.2681 34.4208 16.5547 35.182 16.5547C35.9606 16.5547 36.314 16.2681 36.314 15.8369V15.8C36.314 15.2072 35.3936 15.0093 34.3496 14.6859C33.0228 14.2909 31.5186 13.6612 31.5186 11.7924V11.7563C31.5186 9.79754 33.0758 8.70117 34.9878 8.70117C35.9781 8.70117 37.0046 8.97134 37.925 9.43799C38.314 9.63652 38.5619 9.99541 38.5619 10.4634C38.5619 11.0747 38.0843 11.5414 37.4823 11.5414C37.2882 11.5414 37.1632 11.5052 36.9872 11.4152C36.2253 11.0379 35.4997 10.8046 34.9348 10.8046C34.2791 10.8046 33.9425 11.0925 33.9425 11.4691V11.5052C33.9425 12.0449 34.8454 12.2966 35.8719 12.6555C37.1988 13.1038 38.7386 13.7512 38.7386 15.5121V15.549C38.7386 17.6871 37.1632 18.6566 35.1114 18.6566C33.9425 18.6566 32.6869 18.3162 31.5367 17.5616Z" fill="#040404"/>
<path fill-rule="evenodd" clip-rule="evenodd" d="M39.9414 10.1036C39.9414 9.3483 40.5428 8.73769 41.285 8.73769C42.0287 8.73769 42.6298 9.3483 42.6298 10.1036V10.2291C43.2857 9.33124 44.1879 8.66602 45.5859 8.66602C47.7979 8.66602 49.9038 10.4263 49.9038 13.6424V13.6793C49.9038 16.8961 47.8337 18.657 45.5859 18.657C44.1524 18.657 43.2676 17.9925 42.6298 17.2195V20.0952C42.6298 20.8498 42.0287 21.4604 41.285 21.4604C40.5428 21.4604 39.9414 20.8498 39.9414 20.0952V10.1036ZM47.2137 13.6791V13.6422C47.2137 12.0444 46.1523 10.9835 44.8958 10.9835C43.6392 10.9835 42.5955 12.0444 42.5955 13.6422V13.6791C42.5955 15.2783 43.6392 16.3392 44.8958 16.3392C46.1523 16.3392 47.2137 15.2967 47.2137 13.6791Z" fill="#040404"/>
<path fill-rule="evenodd" clip-rule="evenodd" d="M57.5938 13.7164V13.6802C57.5938 10.913 59.7872 8.66699 62.7433 8.66699C65.6796 8.66699 67.8565 10.8768 67.8565 13.6434V13.6802C67.8565 16.4481 65.6623 18.6941 62.7078 18.6941C59.7706 18.6941 57.5938 16.4836 57.5938 13.7164ZM65.2027 13.7163V13.6802C65.2027 12.2604 64.1937 11.0207 62.7078 11.0207C61.1687 11.0207 60.2483 12.2242 60.2483 13.6433V13.6802C60.2483 15.1 61.2565 16.3403 62.7433 16.3403C64.2828 16.3403 65.2027 15.1355 65.2027 13.7163Z" fill="#040404"/>
<path fill-rule="evenodd" clip-rule="evenodd" d="M77.7511 17.2201C77.7511 17.9754 77.1488 18.5853 76.4066 18.5853C75.6629 18.5853 75.0614 17.9754 75.0614 17.2201V17.113C74.4418 17.9208 73.6452 18.6569 72.2831 18.6569C70.2489 18.6569 69.0625 17.2911 69.0625 15.0819V10.1042C69.0625 9.34889 69.6644 8.73828 70.4065 8.73828C71.1507 8.73828 71.7517 9.34889 71.7517 10.1042V14.2196C71.7517 15.5125 72.3536 16.1783 73.3804 16.1783C74.4059 16.1783 75.0614 15.5125 75.0614 14.2196V10.1042C75.0614 9.34889 75.6629 8.73828 76.4066 8.73828C77.1488 8.73828 77.7511 9.34889 77.7511 10.1042V17.2201Z" fill="#040404"/>
<path fill-rule="evenodd" clip-rule="evenodd" d="M79.1172 15.7458V7.64196C79.1172 6.88604 79.7195 6.27539 80.4616 6.27539C81.2054 6.27539 81.8064 6.88604 81.8064 7.64196V8.84546H82.992C83.629 8.84546 84.1425 9.36673 84.1425 10.0135C84.1425 10.6603 83.629 11.1815 82.992 11.1815H81.8064V15.2969C81.8064 15.9253 82.0717 16.2316 82.674 16.2316C82.7618 16.2316 82.9392 16.2131 82.992 16.2131C83.5943 16.2131 84.1075 16.716 84.1075 17.3451C84.1075 17.8308 83.7886 18.2252 83.4173 18.3705C82.9211 18.5684 82.4615 18.6386 81.8774 18.6386C80.2318 18.6386 79.1172 17.9755 79.1172 15.7458Z" fill="#040404"/>
<path fill-rule="evenodd" clip-rule="evenodd" d="M89.7245 18.6565C88.4147 18.6565 86.9643 18.1353 85.9375 17.2907L86.6273 16.3034C87.6185 17.0573 88.7162 17.4892 89.7946 17.4892C90.8919 17.4892 91.6877 16.9134 91.6877 16.0155V15.9794C91.6877 15.0453 90.6085 14.6858 89.406 14.3447C87.9725 13.9305 86.3801 13.4277 86.3801 11.72V11.6846C86.3801 10.0854 87.6899 9.02441 89.4951 9.02441C90.6085 9.02441 91.8481 9.41947 92.7854 10.0499L92.1662 11.0917C91.3164 10.5349 90.3437 10.1918 89.4584 10.1918C88.3796 10.1918 87.6899 10.7676 87.6899 11.5406V11.5761C87.6899 12.4569 88.8219 12.7987 90.0429 13.1766C91.4587 13.6071 92.9801 14.1645 92.9801 15.8361V15.8716C92.9801 17.6325 91.5466 18.6565 89.7245 18.6565Z" fill="#040404"/>
<path fill-rule="evenodd" clip-rule="evenodd" d="M98.8018 18.6937C96.0593 18.6937 94.0586 16.5009 94.0586 13.8599C94.0586 11.2175 96.0766 8.98926 98.8368 8.98926C101.579 8.98926 103.597 11.182 103.597 13.823C103.597 16.4654 101.562 18.6937 98.8018 18.6937ZM98.8018 10.2106C96.8188 10.2106 95.4578 11.8111 95.4578 13.8231C95.4578 15.8372 96.9091 17.4534 98.8368 17.4534C100.819 17.4534 102.199 15.8542 102.199 13.86C102.199 11.8296 100.73 10.2106 98.8018 10.2106Z" fill="#040404"/>
<path fill-rule="evenodd" clip-rule="evenodd" d="M109.29 18.6937C106.618 18.6937 104.602 16.4832 104.602 13.8599C104.602 11.2175 106.618 8.98926 109.29 8.98926C111.025 8.98926 112.104 9.72611 112.954 10.643L112.051 11.6132C111.325 10.8409 110.511 10.2105 109.273 10.2105C107.415 10.2105 106 11.8111 106 13.823C106 15.8541 107.451 17.4533 109.361 17.4533C110.53 17.4533 111.431 16.8598 112.158 16.069L113.024 16.8959C112.104 17.9391 111.008 18.6937 109.29 18.6937Z" fill="#040404"/>
<path fill-rule="evenodd" clip-rule="evenodd" d="M114.422 7.15677H115.98V5.62988H114.422V7.15677ZM114.51 18.4788H115.874V9.18713H114.51V18.4788Z" fill="#040404"/>
<path fill-rule="evenodd" clip-rule="evenodd" d="M118.686 10.9664L118.279 9.83454C119.288 9.3672 120.279 9.06152 121.607 9.06152C124.1 9.06152 125.499 10.3558 125.499 12.7996V18.4788H124.189V17.0767C123.551 17.9213 122.491 18.6752 120.881 18.6752C119.181 18.6752 117.465 17.7051 117.465 15.7647C117.465 13.7882 119.058 12.7458 121.375 12.7458C122.543 12.7458 123.375 12.9067 124.189 13.1414V12.818C124.189 11.1458 123.179 10.2842 121.464 10.2842C120.384 10.2842 119.535 10.5707 118.686 10.9664ZM118.845 15.7107C118.845 16.8965 119.907 17.5801 121.145 17.5801C122.828 17.5801 124.207 16.5376 124.207 15.0633V14.1654C123.535 13.9682 122.632 13.7711 121.516 13.7711C119.801 13.7711 118.845 14.525 118.845 15.7107Z" fill="#040404"/>
<path fill-rule="evenodd" clip-rule="evenodd" d="M127.637 18.4785H129V5.35938H127.637V18.4785Z" fill="#040404"/>
<path fill-rule="evenodd" clip-rule="evenodd" d="M58.5594 7.92969C58.5594 7.92969 57.3875 8.4584 56.3612 8.43933C55.3699 8.41953 54.8805 8.92987 54.8805 8.92987L54.8817 8.93392C54.4588 9.24299 54.1105 9.77722 53.8533 10.3558V10.104C53.8533 9.34878 53.251 8.73817 52.5085 8.73817C51.7647 8.73817 51.1641 9.34878 51.1641 10.104V17.22C51.1641 17.9759 51.7647 18.5852 52.5085 18.5852C53.251 18.5852 53.8533 17.9759 53.8533 17.22V13.8421C54.0468 12.3957 54.7728 11.5729 55.9447 11.2946C56.012 11.2796 56.0757 11.2584 56.1386 11.2359C56.1402 11.2352 56.1402 11.2352 56.1423 11.2345C56.1443 11.2332 56.1483 11.2332 56.1507 11.2318C58.8617 10.4322 58.5594 7.92969 58.5594 7.92969Z" fill="#040404"/>
<path fill-rule="evenodd" clip-rule="evenodd" d="M8.83977 0.364258C3.95767 0.364258 0 4.38342 0 9.34209V25.8609C0 26.3897 0.630161 26.6544 0.998992 26.2798L5.80113 21.4051H11.8784C16.7612 21.4051 20.7188 17.3859 20.7188 12.4279V0.364258H8.83977Z" fill="#2BB656"/>
<path fill-rule="evenodd" clip-rule="evenodd" d="M5.79949 21.4053H1.37891L4.14075 23.0891L5.79949 21.4053Z" fill="#006B40"/>
<path fill-rule="evenodd" clip-rule="evenodd" d="M20.7189 0.364258H8.83984V12.4279L20.7189 0.364258Z" fill="#0CA750"/>
<path fill-rule="evenodd" clip-rule="evenodd" d="M8.83977 0.364258C3.95767 0.364258 0 4.38412 0 9.34209V21.4051L8.83977 12.4279V0.364258Z" fill="#006B40"/>
<path fill-rule="evenodd" clip-rule="evenodd" d="M20.7189 0.364258L8.83984 12.4279H20.7189V0.364258Z" fill="#75DD66"/>
</g>
</g>
<defs>
<clipPath id="clip0_3093_1664">
<rect width="129" height="27" fill="white"/>
</clipPath>
</defs>
</svg>
